<?xml version="1.0" encoding="UTF-8" standalone="no"?><!DOCTYPE svg PUBLIC "-//W3C//DTD SVG 1.1//EN" "http://www.w3.org/Graphics/SVG/1.1/DTD/svg11.dtd"><svg width="100%" height="100%" viewBox="0 0 2415 500" version="1.1" xmlns="http://www.w3.org/2000/svg" xmlns:xlink="http://www.w3.org/1999/xlink" xml:space="preserve" xmlns:serif="http://www.serif.com/" style="fill-rule:evenodd;clip-rule:evenodd;stroke-linejoin:round;stroke-miterlimit:2;"><rect id="Horizontal" x="-0" y="0" width="2415" height="500" style="fill:none;"/><g id="Coral"><g id="Text" transform="matrix(1,0,0,0.932198,0,-448.567)"><g transform="matrix(267.364,0,0,267.364,339.321,826.905)"><path d="M0.385,0.01c-0.064,-0 -0.122,-0.015 -0.173,-0.044c-0.051,-0.03 -0.092,-0.072 -0.122,-0.128c-0.029,-0.055 -0.044,-0.123 -0.044,-0.201c-0,-0.08 0.015,-0.147 0.044,-0.203c0.03,-0.056 0.071,-0.098 0.122,-0.127c0.051,-0.03 0.109,-0.044 0.173,-0.044c0.065,-0 0.122,0.014 0.174,0.044c0.051,0.029 0.091,0.071 0.121,0.127c0.03,0.056 0.045,0.123 0.045,0.203c-0,0.079 -0.015,0.146 -0.045,0.202c-0.03,0.055 -0.07,0.098 -0.121,0.127c-0.052,0.029 -0.109,0.044 -0.174,0.044Zm0,-0.133c0.038,0 0.071,-0.009 0.099,-0.027c0.028,-0.019 0.05,-0.046 0.066,-0.082c0.016,-0.036 0.023,-0.079 0.023,-0.131c0,-0.053 -0.007,-0.097 -0.023,-0.133c-0.016,-0.036 -0.038,-0.063 -0.066,-0.081c-0.028,-0.019 -0.061,-0.028 -0.099,-0.028c-0.037,0 -0.07,0.009 -0.098,0.028c-0.029,0.018 -0.051,0.046 -0.066,0.082c-0.016,0.036 -0.024,0.08 -0.024,0.132c0,0.052 0.008,0.095 0.024,0.131c0.015,0.036 0.037,0.063 0.066,0.082c0.028,0.018 0.061,0.027 0.098,0.027Z" style="fill:#f04e4e;fill-rule:nonzero;"/></g><g transform="matrix(267.364,0,0,267.364,531.959,826.905)"><path d="M0.062,0.204l0,-0.75l0.144,0l0,0.092l0.008,-0c0.006,-0.015 0.016,-0.029 0.028,-0.045c0.013,-0.015 0.029,-0.028 0.05,-0.038c0.02,-0.011 0.046,-0.016 0.077,-0.016c0.041,0 0.078,0.011 0.111,0.032c0.033,0.02 0.06,0.052 0.08,0.093c0.02,0.042 0.031,0.094 0.031,0.156c-0,0.061 -0.01,0.112 -0.03,0.154c-0.019,0.041 -0.046,0.073 -0.079,0.095c-0.034,0.021 -0.072,0.032 -0.114,0.032c-0.029,0 -0.054,-0.005 -0.075,-0.015c-0.02,-0.01 -0.037,-0.022 -0.05,-0.037c-0.013,-0.015 -0.023,-0.03 -0.029,-0.044l-0.005,-0l-0,0.291l-0.147,0Zm0.261,-0.312c0.026,-0 0.047,-0.007 0.065,-0.021c0.017,-0.014 0.03,-0.034 0.039,-0.058c0.009,-0.025 0.013,-0.054 0.013,-0.085c0,-0.032 -0.004,-0.061 -0.013,-0.085c-0.009,-0.025 -0.022,-0.044 -0.039,-0.058c-0.018,-0.013 -0.039,-0.02 -0.065,-0.02c-0.025,-0 -0.046,0.006 -0.064,0.02c-0.017,0.013 -0.031,0.032 -0.04,0.056c-0.009,0.025 -0.013,0.053 -0.013,0.087c-0,0.032 0.004,0.061 0.013,0.086c0.01,0.024 0.023,0.043 0.041,0.057c0.017,0.014 0.038,0.021 0.063,0.021Z" style="fill:#f04e4e;fill-rule:nonzero;"/></g><g transform="matrix(267.364,0,0,267.364,687.129,826.905)"><path d="M0.309,0.011c-0.055,-0 -0.103,-0.012 -0.144,-0.035c-0.04,-0.022 -0.071,-0.055 -0.093,-0.097c-0.021,-0.042 -0.032,-0.092 -0.032,-0.149c-0,-0.056 0.01,-0.106 0.032,-0.148c0.021,-0.042 0.052,-0.075 0.091,-0.099c0.04,-0.024 0.086,-0.036 0.139,-0.036c0.036,0 0.069,0.006 0.1,0.017c0.031,0.012 0.058,0.029 0.081,0.052c0.024,0.023 0.042,0.051 0.055,0.086c0.013,0.035 0.02,0.075 0.02,0.122l-0,0.041l-0.458,0l-0,-0.092l0.387,0l-0.069,0.025c0,-0.029 -0.004,-0.053 -0.013,-0.074c-0.009,-0.021 -0.021,-0.038 -0.038,-0.049c-0.018,-0.012 -0.039,-0.017 -0.064,-0.017c-0.025,-0 -0.047,0.005 -0.064,0.017c-0.018,0.012 -0.032,0.028 -0.041,0.048c-0.009,0.02 -0.014,0.043 -0.014,0.068l0,0.065c0,0.032 0.006,0.058 0.016,0.08c0.011,0.021 0.026,0.037 0.045,0.048c0.019,0.011 0.041,0.016 0.067,0.016c0.017,0 0.032,-0.002 0.046,-0.007c0.014,-0.005 0.026,-0.012 0.036,-0.022c0.01,-0.009 0.018,-0.021 0.023,-0.035l0.133,0.025c-0.009,0.03 -0.024,0.056 -0.046,0.079c-0.022,0.022 -0.049,0.04 -0.082,0.052c-0.033,0.012 -0.07,0.019 -0.113,0.019Z" style="fill:#f04e4e;fill-rule:nonzero;"/></g><g transform="matrix(267.364,0,0,267.364,833.03,826.905)"><path d="M0.209,-0.316l-0,0.316l-0.147,-0l0,-0.546l0.139,0l0.002,0.136l-0.009,0c0.015,-0.045 0.036,-0.08 0.065,-0.105c0.03,-0.025 0.067,-0.038 0.113,-0.038c0.038,0 0.071,0.008 0.099,0.025c0.028,0.016 0.05,0.04 0.066,0.071c0.015,0.03 0.023,0.067 0.023,0.11l0,0.347l-0.146,-0l-0,-0.322c-0,-0.034 -0.009,-0.06 -0.027,-0.079c-0.017,-0.02 -0.041,-0.029 -0.072,-0.029c-0.021,-0 -0.039,0.004 -0.055,0.013c-0.016,0.009 -0.029,0.022 -0.038,0.039c-0.009,0.017 -0.013,0.038 -0.013,0.062Z" style="fill:#f04e4e;fill-rule:nonzero;"/></g><g transform="matrix(267.364,0,0,267.364,972.534,826.905)"><path d="M0.279,-0l-0.255,-0.728l0.165,0l0.117,0.351c0.014,0.045 0.028,0.094 0.042,0.147c0.015,0.053 0.03,0.111 0.045,0.174l-0.032,0c0.016,-0.064 0.03,-0.122 0.044,-0.175c0.014,-0.053 0.027,-0.101 0.041,-0.146l0.112,-0.351l0.165,0l-0.25,0.728l-0.194,-0Z" style="fill:#f04e4e;fill-rule:nonzero;"/></g><g transform="matrix(267.364,0,0,267.364,1142.46,826.905)"><path d="M0.307,0.011c-0.055,-0 -0.102,-0.012 -0.142,-0.036c-0.04,-0.023 -0.071,-0.056 -0.093,-0.098c-0.021,-0.042 -0.032,-0.092 -0.032,-0.148c-0,-0.056 0.011,-0.105 0.032,-0.148c0.022,-0.042 0.053,-0.075 0.093,-0.098c0.04,-0.024 0.087,-0.036 0.142,-0.036c0.055,0 0.102,0.012 0.142,0.036c0.04,0.023 0.071,0.056 0.092,0.098c0.022,0.043 0.033,0.092 0.033,0.148c-0,0.056 -0.011,0.106 -0.033,0.148c-0.021,0.042 -0.052,0.075 -0.092,0.098c-0.04,0.024 -0.087,0.036 -0.142,0.036Zm-0,-0.116c0.026,0 0.048,-0.007 0.065,-0.021c0.018,-0.015 0.031,-0.035 0.039,-0.06c0.009,-0.025 0.014,-0.053 0.014,-0.085c-0,-0.032 -0.005,-0.061 -0.014,-0.086c-0.008,-0.025 -0.021,-0.045 -0.039,-0.059c-0.017,-0.014 -0.039,-0.021 -0.065,-0.021c-0.026,-0 -0.048,0.007 -0.066,0.021c-0.017,0.014 -0.03,0.034 -0.039,0.059c-0.009,0.025 -0.013,0.054 -0.013,0.086c-0,0.032 0.004,0.06 0.013,0.085c0.009,0.025 0.022,0.045 0.039,0.06c0.018,0.014 0.04,0.021 0.066,0.021Z" style="fill:#f04e4e;fill-rule:nonzero;"/></g><g transform="matrix(267.364,0,0,267.364,1293.06,826.905)"><path d="M0.062,-0l0,-0.546l0.147,0l-0,0.546l-0.147,-0Zm0.074,-0.617c-0.022,-0 -0.041,-0.007 -0.057,-0.022c-0.016,-0.015 -0.024,-0.033 -0.024,-0.053c0,-0.021 0.008,-0.039 0.024,-0.054c0.016,-0.014 0.035,-0.022 0.057,-0.022c0.022,0 0.041,0.008 0.057,0.022c0.015,0.015 0.023,0.033 0.023,0.054c0,0.02 -0.008,0.038 -0.023,0.053c-0.016,0.015 -0.035,0.022 -0.057,0.022Z" style="fill:#f04e4e;fill-rule:nonzero;"/></g><g transform="matrix(267.364,0,0,267.364,1352.14,826.905)"><path d="M0.306,0.011c-0.054,-0 -0.102,-0.012 -0.142,-0.036c-0.039,-0.023 -0.07,-0.056 -0.092,-0.098c-0.021,-0.042 -0.032,-0.092 -0.032,-0.148c-0,-0.056 0.011,-0.105 0.032,-0.148c0.022,-0.042 0.053,-0.075 0.092,-0.098c0.04,-0.024 0.088,-0.036 0.142,-0.036c0.033,0 0.063,0.004 0.09,0.013c0.027,0.008 0.052,0.02 0.073,0.036c0.021,0.016 0.038,0.035 0.052,0.057c0.014,0.023 0.023,0.048 0.028,0.076l-0.136,0.025c-0.003,-0.014 -0.008,-0.027 -0.014,-0.038c-0.006,-0.011 -0.013,-0.021 -0.022,-0.029c-0.009,-0.008 -0.019,-0.014 -0.031,-0.018c-0.011,-0.004 -0.024,-0.006 -0.038,-0.006c-0.026,-0 -0.048,0.007 -0.066,0.021c-0.017,0.014 -0.031,0.033 -0.04,0.058c-0.009,0.025 -0.013,0.054 -0.013,0.087c-0,0.032 0.004,0.061 0.013,0.086c0.009,0.025 0.023,0.045 0.04,0.059c0.018,0.014 0.04,0.021 0.066,0.021c0.014,0 0.027,-0.002 0.039,-0.006c0.012,-0.004 0.022,-0.011 0.031,-0.019c0.009,-0.008 0.017,-0.018 0.023,-0.03c0.006,-0.012 0.01,-0.025 0.013,-0.04l0.136,0.025c-0.005,0.029 -0.014,0.055 -0.028,0.078c-0.014,0.022 -0.031,0.042 -0.052,0.058c-0.021,0.016 -0.046,0.028 -0.073,0.037c-0.028,0.008 -0.058,0.013 -0.091,0.013Z" style="fill:#f04e4e;fill-rule:nonzero;"/></g><g transform="matrix(267.364,0,0,267.364,1496.09,826.905)"><path d="M0.309,0.011c-0.055,-0 -0.103,-0.012 -0.144,-0.035c-0.04,-0.022 -0.071,-0.055 -0.093,-0.097c-0.021,-0.042 -0.032,-0.092 -0.032,-0.149c-0,-0.056 0.01,-0.106 0.032,-0.148c0.021,-0.042 0.052,-0.075 0.091,-0.099c0.04,-0.024 0.086,-0.036 0.139,-0.036c0.036,0 0.069,0.006 0.1,0.017c0.031,0.012 0.058,0.029 0.081,0.052c0.024,0.023 0.042,0.051 0.055,0.086c0.013,0.035 0.02,0.075 0.02,0.122l-0,0.041l-0.458,0l-0,-0.092l0.387,0l-0.069,0.025c0,-0.029 -0.004,-0.053 -0.013,-0.074c-0.009,-0.021 -0.021,-0.038 -0.038,-0.049c-0.018,-0.012 -0.039,-0.017 -0.064,-0.017c-0.025,-0 -0.047,0.005 -0.064,0.017c-0.018,0.012 -0.032,0.028 -0.041,0.048c-0.009,0.02 -0.014,0.043 -0.014,0.068l0,0.065c0,0.032 0.006,0.058 0.016,0.08c0.011,0.021 0.026,0.037 0.045,0.048c0.019,0.011 0.041,0.016 0.067,0.016c0.017,0 0.032,-0.002 0.046,-0.007c0.014,-0.005 0.026,-0.012 0.036,-0.022c0.01,-0.009 0.018,-0.021 0.023,-0.035l0.133,0.025c-0.009,0.03 -0.024,0.056 -0.046,0.079c-0.022,0.022 -0.049,0.04 -0.082,0.052c-0.033,0.012 -0.07,0.019 -0.113,0.019Z" style="fill:#f04e4e;fill-rule:nonzero;"/></g><g transform="matrix(267.364,0,0,267.364,1641.99,826.905)"><path d="M0.066,-0l-0,-0.728l0.284,0c0.055,0 0.102,0.011 0.141,0.032c0.038,0.021 0.068,0.05 0.088,0.087c0.021,0.037 0.031,0.079 0.031,0.127c-0,0.048 -0.011,0.091 -0.031,0.127c-0.021,0.037 -0.051,0.066 -0.09,0.086c-0.039,0.021 -0.087,0.031 -0.143,0.031l-0.182,0l-0,-0.12l0.158,0c0.031,0 0.056,-0.005 0.076,-0.016c0.019,-0.01 0.034,-0.025 0.044,-0.044c0.009,-0.018 0.014,-0.04 0.014,-0.064c0,-0.024 -0.005,-0.046 -0.014,-0.064c-0.01,-0.019 -0.025,-0.033 -0.045,-0.043c-0.019,-0.01 -0.045,-0.016 -0.075,-0.016l-0.107,0l-0,0.605l-0.149,0Z" style="fill:#f04e4e;fill-rule:nonzero;"/></g><g transform="matrix(267.364,0,0,267.364,1798.46,826.905)"><path d="M0.215,0.011c-0.035,-0 -0.066,-0.007 -0.093,-0.019c-0.028,-0.012 -0.049,-0.03 -0.065,-0.054c-0.016,-0.025 -0.024,-0.055 -0.024,-0.091c0,-0.03 0.006,-0.056 0.017,-0.076c0.011,-0.02 0.026,-0.037 0.046,-0.049c0.019,-0.013 0.041,-0.022 0.066,-0.029c0.024,-0.006 0.05,-0.011 0.077,-0.013c0.032,-0.004 0.057,-0.007 0.076,-0.009c0.02,-0.003 0.034,-0.008 0.043,-0.014c0.009,-0.006 0.014,-0.014 0.014,-0.026l-0,-0.003c-0,-0.015 -0.004,-0.028 -0.01,-0.039c-0.007,-0.011 -0.017,-0.019 -0.029,-0.025c-0.013,-0.006 -0.029,-0.008 -0.047,-0.008c-0.019,-0 -0.035,0.002 -0.049,0.008c-0.014,0.006 -0.025,0.013 -0.034,0.023c-0.009,0.009 -0.016,0.02 -0.02,0.032l-0.134,-0.023c0.009,-0.031 0.025,-0.058 0.047,-0.08c0.021,-0.023 0.049,-0.04 0.081,-0.051c0.032,-0.012 0.069,-0.018 0.109,-0.018c0.03,0 0.058,0.004 0.086,0.011c0.028,0.007 0.052,0.017 0.074,0.032c0.022,0.015 0.04,0.034 0.053,0.058c0.013,0.023 0.019,0.051 0.019,0.084l0,0.368l-0.139,-0l0,-0.076l-0.005,0c-0.008,0.017 -0.02,0.032 -0.035,0.045c-0.014,0.013 -0.032,0.023 -0.053,0.031c-0.02,0.007 -0.044,0.011 -0.071,0.011Zm0.041,-0.103c0.023,-0 0.044,-0.005 0.061,-0.014c0.017,-0.009 0.031,-0.021 0.041,-0.037c0.01,-0.016 0.015,-0.033 0.015,-0.052l-0,-0.059c-0.005,0.003 -0.011,0.006 -0.02,0.008c-0.009,0.003 -0.018,0.005 -0.029,0.007c-0.011,0.002 -0.021,0.004 -0.032,0.006c-0.01,0.001 -0.02,0.003 -0.028,0.004c-0.018,0.002 -0.034,0.006 -0.047,0.012c-0.014,0.006 -0.024,0.014 -0.032,0.023c-0.008,0.01 -0.011,0.022 -0.011,0.037c-0,0.014 0.003,0.026 0.01,0.036c0.008,0.009 0.017,0.017 0.03,0.022c0.012,0.004 0.026,0.007 0.042,0.007Z" style="fill:#f04e4e;fill-rule:nonzero;"/></g><g transform="matrix(267.364,0,0,267.364,1940.32,826.905)"><path d="M0.306,0.011c-0.054,-0 -0.102,-0.012 -0.142,-0.036c-0.039,-0.023 -0.07,-0.056 -0.092,-0.098c-0.021,-0.042 -0.032,-0.092 -0.032,-0.148c-0,-0.056 0.011,-0.105 0.032,-0.148c0.022,-0.042 0.053,-0.075 0.092,-0.098c0.04,-0.024 0.088,-0.036 0.142,-0.036c0.033,0 0.063,0.004 0.09,0.013c0.027,0.008 0.052,0.02 0.073,0.036c0.021,0.016 0.038,0.035 0.052,0.057c0.014,0.023 0.023,0.048 0.028,0.076l-0.136,0.025c-0.003,-0.014 -0.008,-0.027 -0.014,-0.038c-0.006,-0.011 -0.013,-0.021 -0.022,-0.029c-0.009,-0.008 -0.019,-0.014 -0.031,-0.018c-0.011,-0.004 -0.024,-0.006 -0.038,-0.006c-0.026,-0 -0.048,0.007 -0.066,0.021c-0.017,0.014 -0.031,0.033 -0.04,0.058c-0.009,0.025 -0.013,0.054 -0.013,0.087c-0,0.032 0.004,0.061 0.013,0.086c0.009,0.025 0.023,0.045 0.04,0.059c0.018,0.014 0.04,0.021 0.066,0.021c0.014,0 0.027,-0.002 0.039,-0.006c0.012,-0.004 0.022,-0.011 0.031,-0.019c0.009,-0.008 0.017,-0.018 0.023,-0.03c0.006,-0.012 0.01,-0.025 0.013,-0.04l0.136,0.025c-0.005,0.029 -0.014,0.055 -0.028,0.078c-0.014,0.022 -0.031,0.042 -0.052,0.058c-0.021,0.016 -0.046,0.028 -0.073,0.037c-0.028,0.008 -0.058,0.013 -0.091,0.013Z" style="fill:#f04e4e;fill-rule:nonzero;"/></g><g transform="matrix(267.364,0,0,267.364,2084.26,826.905)"><path d="M0.195,-0.16l0,-0.176l0.022,-0l0.179,-0.21l0.169,0l-0.236,0.274l-0.034,-0l-0.1,0.112Zm-0.133,0.16l0,-0.728l0.147,0l-0,0.728l-0.147,-0Zm0.341,-0l-0.164,-0.239l0.098,-0.104l0.239,0.343l-0.173,-0Z" style="fill:#f04e4e;fill-rule:nonzero;"/></g><g transform="matrix(267.364,0,0,267.364,2225.98,826.905)"><path d="M0.279,0.011c-0.044,-0 -0.083,-0.007 -0.116,-0.019c-0.034,-0.013 -0.062,-0.031 -0.083,-0.055c-0.022,-0.024 -0.036,-0.052 -0.042,-0.086l0.136,-0.024c0.008,0.026 0.02,0.045 0.038,0.057c0.018,0.013 0.042,0.019 0.072,0.019c0.027,0 0.05,-0.005 0.066,-0.016c0.016,-0.01 0.024,-0.024 0.024,-0.04c0,-0.014 -0.006,-0.026 -0.017,-0.035c-0.012,-0.009 -0.029,-0.016 -0.054,-0.021l-0.094,-0.02c-0.052,-0.01 -0.091,-0.029 -0.118,-0.055c-0.026,-0.025 -0.039,-0.059 -0.039,-0.1c0,-0.034 0.01,-0.065 0.029,-0.09c0.019,-0.025 0.046,-0.045 0.08,-0.058c0.034,-0.014 0.075,-0.021 0.121,-0.021c0.043,0 0.08,0.006 0.112,0.018c0.031,0.012 0.057,0.029 0.076,0.051c0.02,0.021 0.033,0.047 0.039,0.077l-0.13,0.023c-0.005,-0.019 -0.016,-0.034 -0.032,-0.046c-0.015,-0.012 -0.037,-0.018 -0.063,-0.018c-0.024,0 -0.044,0.005 -0.061,0.016c-0.016,0.01 -0.024,0.023 -0.024,0.04c-0,0.013 0.005,0.025 0.016,0.034c0.01,0.01 0.028,0.017 0.054,0.023l0.098,0.019c0.053,0.011 0.092,0.028 0.118,0.053c0.026,0.024 0.039,0.056 0.039,0.095c-0,0.035 -0.011,0.067 -0.032,0.094c-0.021,0.026 -0.049,0.047 -0.086,0.062c-0.037,0.015 -0.079,0.023 -0.127,0.023Z" style="fill:#f04e4e;fill-rule:nonzero;"/></g><g transform="matrix(267.364,0,0,267.364,2375.72,826.905)"></g></g><g id="Logo"><path id="Black" d="M242.373,79.842c-4.235,-1.06 -6.75,-5.127 -5.613,-9.075c1.137,-3.948 5.5,-6.293 9.735,-5.232c54.751,13.707 87.265,66.272 72.561,117.311c-1.137,3.949 -5.499,6.293 -9.735,5.233c-4.235,-1.06 -6.75,-5.127 -5.613,-9.075c12.429,-43.143 -15.054,-87.576 -61.335,-99.162Zm-7.943,27.572c-4.236,-1.06 -6.751,-5.126 -5.613,-9.074c1.137,-3.949 5.499,-6.293 9.735,-5.233c38.427,9.62 61.246,46.513 50.926,82.335c-1.137,3.948 -5.499,6.292 -9.735,5.232c-4.235,-1.06 -6.75,-5.126 -5.613,-9.075c8.045,-27.925 -9.744,-56.685 -39.7,-64.185Zm25.072,60.523c-1.137,3.948 -5.499,6.293 -9.735,5.233c-4.235,-1.061 -6.75,-5.127 -5.613,-9.075c3.602,-12.503 -4.362,-25.379 -17.774,-28.737c-4.236,-1.06 -6.751,-5.127 -5.614,-9.075c1.138,-3.948 5.5,-6.293 9.735,-5.232c21.883,5.478 34.878,26.487 29.001,46.886Zm-144.034,-26.703l72.489,-0c23.408,-0 42.411,17.715 42.411,39.535c0,0 0.3,114.675 0,146.347c-0.237,25.085 -27.084,34.315 -42.411,39.536c-19.647,6.691 -42.135,6.488 -42.135,6.488c0,-0 -22.372,0.256 -42.687,-6.488c-15.447,-5.129 -42.174,-13.537 -42.411,-39.536c-0.289,-31.672 0,-146.347 0,-146.347c0,-16.477 10.836,-30.613 26.221,-36.548l4.49,-92.692c0.015,-12.165 19.582,-12.312 19.567,-0.229l4.466,89.934Zm91.937,42.199c-2.375,-6.642 -8.805,-12.645 -15.933,-14.853c-10.31,-3.193 -30.617,-4.308 -45.926,-4.308c-15.308,0 -35.616,1.115 -45.926,4.308c-7.127,2.208 -13.558,8.211 -15.933,14.853c-2.656,7.427 0,29.706 0,29.706c0,8.198 7.14,14.853 15.933,14.853c0,0 30.618,-3.829 45.926,-3.829c15.309,0 45.926,3.829 45.926,3.829c8.794,0 15.933,-6.655 15.933,-14.853c0,0 2.656,-22.279 0,-29.706Zm-102.318,67.849c0.235,-0.349 -0.148,-1.036 -0.582,-0.998c-11.67,1.009 -20.818,10.173 -20.818,21.313c0,11.814 10.289,21.406 22.963,21.406c12.673,0 22.963,-9.592 22.963,-21.406c-0,-4.449 -1.46,-8.584 -3.956,-12.009c-0.193,-0.264 -0.953,-0.211 -1.171,0.122c-1.1,1.677 -2.772,4.031 -3.528,4.748c-1.923,1.823 -4.598,2.954 -7.555,2.954c-5.849,-0 -10.598,-4.427 -10.598,-9.88c-0,-1.741 0.484,-3.378 1.334,-4.799c0.172,-0.289 0.534,-0.837 0.948,-1.451Zm89.644,80.752c4.267,-3.351 5.015,-9.214 1.709,-13.404c-3.306,-4.19 -9.532,-5.272 -14.235,-2.474c-0,0 -12.821,7.205 -36.423,6.715c-24.135,-0.501 -36.747,-6.944 -36.747,-6.944c-4.754,-2.557 -10.816,-1.307 -13.969,2.882c-3.152,4.189 -2.351,9.928 1.847,13.225c0,0 20.628,16.271 48.909,16.271c28.281,0 48.909,-16.271 48.909,-16.271Zm-12.102,-80.578c0.257,-0.388 0.023,-1.204 -0.381,-1.168c-0.351,0.031 -0.7,0.069 -1.046,0.115c-11.141,1.47 -19.722,10.405 -19.722,21.194c-0,11.814 10.289,21.406 22.963,21.406c12.673,0 22.962,-9.592 22.962,-21.406c0,-4.381 -1.414,-8.456 -3.841,-11.85c-0.251,-0.351 -1.039,-0.485 -1.389,0.056c-0.885,1.365 -2.054,2.891 -2.501,3.472c-1.922,2.499 -5.064,4.129 -8.612,4.129c-5.844,-0 -10.59,-4.424 -10.59,-9.872c0,-1.71 0.468,-3.32 1.29,-4.723c0.149,-0.254 0.47,-0.755 0.867,-1.353Z" style="fill:#f04e4e;"/></g></g></svg>
